<svg xmlns="http://www.w3.org/2000/svg" viewBox="0 0 256 256"><defs><style>.a{fill:#74c361;}.b{fill:#6db75b;}.c{fill:#5faa49;}.d{fill:#60ab4a;}.e{fill:#6dbc5e;}.f{fill:#71c062;}.g{fill:#6fbe60;}.h{fill:#6dbd5e;}.i{fill:#5fa848;}.j{fill:#5ba348;}.k{fill:#578d4a;}.l{fill:#60af4d;}.m{fill:#5fab49;}.n{fill:#5aa247;}.o{fill:#5b9f45;}.p{fill:#558b48;}.q{fill:#548748;}.r{fill:#538747;}.s{fill:#538647;}.t{fill:#548845;}</style></defs><path class="a" d="M976,412.09c36.14,0,72.29,0,108.43-.09,3,0,3.59.6,3.58,3.58q-.18,70.21-.08,140.41c-5.32,3.89-10.83,3-16.39.65-1.74-2-2-4.5-2-7,0-29.7-.29-59.4.13-89.09a138.48,138.48,0,0,1,.07-15.65c-.41-14.15-.41-14.15-14.54-14.6a133.62,133.62,0,0,1-15.63.06c-19,.41-38,.17-57,.15-2.5,0-5-.26-7-1.95C973,423,972,417.45,976,412.09Z" transform="translate(-832 -412)"/><path class="a" d="M832.08,524c0-36.14,0-72.28-.08-108.43,0-3,.6-3.6,3.58-3.58,25.48.15,51,.09,76.45.09,3.9,5.29,3,10.79.71,16.35a9.3,9.3,0,0,1-6.46,2c-13.68.06-27.37.33-41-.15-2.8-.08-5.61.23-8.42.31-4,.11-6.1,2.23-6.2,6.23-.06,2.65-.35,5.29-.33,7.95a134,134,0,0,1,.06,15.65c.41,19,.17,38,.14,57.05,0,2.51-.25,5-1.94,7C843,527,837.45,528,832.08,524Z" transform="translate(-832 -412)"/><path class="a" d="M912,667.92c-25.57,0-51.14,0-76.71.08-2.76,0-3.33-.55-3.32-3.32.14-25.57.08-51.14.08-76.71,5.28-3.9,10.78-2.94,16.34-.73,1.78,2,2.05,4.45,2.06,7,.06,8.25.28,16.5-.16,24.73,0,.65,0,1.32,0,2,.5,10.68.5,10.67,10.71,12.86a6.85,6.85,0,0,1,4,1.91,13.37,13.37,0,0,1,1.53,5.68c.69,6.41,2.3,7.95,8.83,8,9.74.16,19.49,0,29.23.09,2.95,0,6-.11,8.36,2.26C914.86,657.27,916,662.73,912,667.92Z" transform="translate(-832 -412)"/><path class="b" d="M1024,667.92H992c-2.28-1.68-2.31-4.16-2.51-6.67-.42-5.24-1.79-6.53-7.13-6.8-2.3-.11-4.61-.35-6.93-.31-5.15.09-10.36,1.09-15.34-1.07a3.31,3.31,0,0,1-1.31-1.39c-1.57-5.54-2.28-11,.8-16.35,2.27-1.71,4.94-1.82,7.6-1.83q32.9-.11,65.77,0c2.5,0,5,.15,7.21,1.56,3.47,5.07,2.46,10.5,1.31,15.94a4.43,4.43,0,0,1-.77,1.57,11,11,0,0,1-5.57,1.76c-7.73.75-8,.95-8.72,8.4A6.94,6.94,0,0,1,1024,667.92Z" transform="translate(-832 -412)"/><path class="a" d="M1087.92,620c0,15-.07,30,.06,45,0,2.5-.56,3.09-3.06,3.07-15-.14-30-.07-45-.07a13.87,13.87,0,0,1,0-16h0c1.55-2.07,3.79-2.29,6.14-2.49,5.87-.48,6.91-1.58,7.38-7.59.18-2.32.39-4.58,1.86-6.52,2.08-1.59,4.55-1.68,7-1.9,5.23-.45,6.57-1.8,7.08-7,.28-2.76.1-5.66,2.66-7.63C1077.5,617.34,1082.9,615.89,1087.92,620Z" transform="translate(-832 -412)"/><path class="c" d="M1087.92,572v32c-2.29,2.92-5.58,2.31-8.64,2.44-2.47.11-4.93-.08-7.4-.13-5.54-.28-11.32,1.54-16.52-1.85a8.84,8.84,0,0,1-1.73-5.13c-.27-7.65-.31-15.31,0-23a8.38,8.38,0,0,1,1.54-4.67c5.19-3.56,11-1.67,16.6-2,3.47-.1,6.93-.23,10.4-.08C1084.42,569.69,1086.47,570.08,1087.92,572Z" transform="translate(-832 -412)"/><path class="d" d="M928,412.09h32c4,5.34,2.94,10.86.58,16.43-.6.31.23.12-.41.28a61.55,61.55,0,0,1-32.6-.16C925,423.05,924.07,417.5,928,412.09Z" transform="translate(-832 -412)"/><path class="d" d="M960,667.92H928c-4-5.34-2.94-10.86-.58-16.43a8.78,8.78,0,0,1,5.51-1.9q10.89-.35,21.79,0a6.2,6.2,0,0,1,5.21,2.35l.1,0A14,14,0,0,1,960,667.92Z" transform="translate(-832 -412)"/><path class="d" d="M832.08,572V540c5.35-4,10.87-2.94,16.44-.57.31.59.12-.23.28.4a61.55,61.55,0,0,1-.16,32.6C843.05,575,837.5,575.93,832.08,572Z" transform="translate(-832 -412)"/><path class="e" d="M928,412.09q0,8,0,16l-.48.8a16.39,16.39,0,0,1-15.08,0c-.16-.26-.32-.53-.47-.8v-16Z" transform="translate(-832 -412)"/><path class="e" d="M960,428.09l0-16h16v16c-.15.27-.31.54-.47.8a16.39,16.39,0,0,1-15.08,0Z" transform="translate(-832 -412)"/><path class="e" d="M1087.92,572l-16,0c-3.82-5-3-10.16-.83-15.44l.82-.51h16Z" transform="translate(-832 -412)"/><path class="e" d="M832.08,572l16,0,.8.49a16.37,16.37,0,0,1,0,15.07l-.8.48h-16Z" transform="translate(-832 -412)"/><path class="e" d="M848.09,540l-16,0V524h16l.8.47a16.39,16.39,0,0,1,0,15.08Z" transform="translate(-832 -412)"/><path class="e" d="M1071.94,604l16,0v16h-16l-.83-.52C1068.92,614.16,1068.12,609,1071.94,604Z" transform="translate(-832 -412)"/><path class="e" d="M928.06,651.91q0,8,0,16H912v-16l.47-.8a16.42,16.42,0,0,1,15.08,0Z" transform="translate(-832 -412)"/><path class="e" d="M960,667.92q0-8,0-16l15.94,0a13.86,13.86,0,0,1,0,16Z" transform="translate(-832 -412)"/><path class="f" d="M976,667.92v-16c3.82,0,7.63,0,11.45,0,3.11,0,4.56,1.41,4.52,4.53,0,3.81,0,7.63,0,11.44Z" transform="translate(-832 -412)"/><path class="f" d="M1040,651.93v16h-16c0-3.82.06-7.63,0-11.45,0-3.11,1.42-4.56,4.53-4.52C1032.32,652,1036.13,651.94,1040,651.93Z" transform="translate(-832 -412)"/><path class="e" d="M1071.92,460.06q0,48,0,95.93h0c-5.29,3.89-10.79,3-16.35.68-3.52-5.21-1.63-11-2-16.63-.25-21.32-.3-42.64,0-64,.29-5.57-1.56-11.39,1.86-16.61C1061.06,457.13,1066.58,456.07,1071.92,460.06Z" transform="translate(-832 -412)"/><path class="e" d="M976,428.07h64c4,5.34,2.93,10.86.58,16.43-2.2,1.82-4.85,2-7.52,2-17.06.08-34.12.11-51.18,0-2.27,0-4.7.24-6.57-1.6-2-5.69-3.31-11.36.73-16.79Z" transform="translate(-832 -412)"/><path class="g" d="M1040,444q0-8,0-15.94h16c4.11,4.86,2.44,10.22,1.35,15.53a3.35,3.35,0,0,1-1.2,1.46c-5.24,1.86-10.47,2.48-15.65-.22Z" transform="translate(-832 -412)"/><path class="g" d="M1071.92,460.06,1056,460l-.84-.5c-2.26-5.28-3-10.48.78-15.46l0,0a13.88,13.88,0,0,1,16,0Q1071.92,452.06,1071.92,460.06Z" transform="translate(-832 -412)"/><path class="f" d="M1071.93,444.07l-16,0q0-8,0-16c3.81,0,7.63.06,11.44,0,3.11,0,4.57,1.42,4.53,4.53C1071.87,436.44,1071.92,440.25,1071.93,444.07Z" transform="translate(-832 -412)"/><path class="e" d="M848.07,524V460.06c5.3-3.9,10.8-3,16.35-.69,3.52,5.22,1.62,11.08,2,16.67.32,13.48.14,26.95.13,40.43,0,2.83,0,5.69-2,8.06C859,527,853.44,528,848.08,524Z" transform="translate(-832 -412)"/><path class="h" d="M864.07,428.08h48c4.08,5.31,2.6,10.94.94,16.58-1.75,2.07-4.23,1.76-6.5,1.8-8.65.13-17.31.24-26-.11-5.43-.13-10.94,1.1-16.23-1.07a3.3,3.3,0,0,1-1.38-1.34C861.45,438.52,860,433.1,864.07,428.08Z" transform="translate(-832 -412)"/><path class="f" d="M864.07,428.08l0,16c-4.21,3.43-11.51,3.44-16,0,0-3.82.06-7.64,0-11.45,0-3.11,1.42-4.57,4.53-4.53C856.44,428.14,860.25,428.09,864.07,428.08Z" transform="translate(-832 -412)"/><path class="g" d="M848.08,444.07l16,0,0,0c3.73,5,3,10.17.77,15.45l-.84.5-15.94,0Z" transform="translate(-832 -412)"/><path class="h" d="M912,651.93c-14,0-27.92-.12-41.88.06-4.48.06-6.45-1.48-6.13-6.07.23-3.3,0-6.64,0-10l.49-.82c5.07-3,10.6-1.13,15.92-1.48,8.63-.35,17.27-.23,25.9-.12,2.26,0,4.72-.29,6.53,1.68,1.82,5.68,3.22,11.33-.84,16.71Z" transform="translate(-832 -412)"/><path class="e" d="M848.08,620q0-16,0-32h0c5.27-3.9,10.76-2.94,16.31-.74a5.59,5.59,0,0,1,1.72,3.52c.35,9.59,1.46,19.21-.71,28.73a3.5,3.5,0,0,1-1.27,1.5C858.65,622.68,853.19,623.94,848.08,620Z" transform="translate(-832 -412)"/><path class="g" d="M848.08,620H864c3.45,4.13,3.49,11.46.08,16l-.05,0c-3.81,0-7.62-.08-11.44,0-3.11,0-4.55-1.43-4.51-4.53C848.14,627.57,848.09,623.76,848.08,620Z" transform="translate(-832 -412)"/><path class="i" d="M1040,636H960l-.85-.55c-2.67-4.69-1.6-9.67-1-14.57.19-1.61,1.49-2.52,3.08-2.87a20.89,20.89,0,0,1,4.46-.44q33.64-.16,67.29,0c2.5,0,5,.16,7.2,1.6,3.29,5.32,2.91,10.77.62,16.29Z" transform="translate(-832 -412)"/><path class="i" d="M960,651.94l-31.89,0-.08,0c-3.94-5-2.58-10.39-1.16-15.79a3.38,3.38,0,0,1,1.35-1.38c9.62-2.45,19.33-1.26,29-.8,1.25.06,1.95,1.15,2.79,1.94l0,0Q960,644,960,651.94Z" transform="translate(-832 -412)"/><path class="g" d="M1056,636c0,3.81-.08,7.63,0,11.44,0,3.12-1.43,4.55-4.54,4.51-3.81,0-7.62,0-11.44,0l0-16,0-.06c5-3.71,10.22-3,15.52-.78Z" transform="translate(-832 -412)"/><path class="g" d="M1071.93,620c0,3.81-.06,7.62,0,11.43,0,3.11-1.4,4.57-4.52,4.54-3.81,0-7.62,0-11.43,0l0,0c-3.93-5.36-3-10.88-.51-16.43,5.58-2.55,11.12-3.49,16.51.45Z" transform="translate(-832 -412)"/><path class="j" d="M1056,572v32l-.51.81c-5.11,3-10.67,1.1-16,1.46a93.49,93.49,0,0,1-12.3-.06c-3.25-.29-5.11-2-5.35-5.3-.31-4.26-.65-8.52.82-12.66,1.06-2.79,3.6-2.47,5.83-2.66,7.73-.63,8.36-1.18,9.13-8.63.23-2.15.5-4.26,2.18-5.87,5.25-2,10.49-2.5,15.71.08C1055.61,571.42,1055.78,571.69,1056,572Z" transform="translate(-832 -412)"/><path class="b" d="M1071.92,619.94H1056l-.84-.5c-2.27-5.29-3-10.5.8-15.48h0l16,0Q1071.93,612,1071.92,619.94Z" transform="translate(-832 -412)"/><path class="b" d="M1056,556h15.93q0,8,0,15.94l-16,0h0c-3.79-5-3.07-10.18-.8-15.47Z" transform="translate(-832 -412)"/><path class="i" d="M928.06,428.09H960l.08,0c4,4.95,2.54,10.32,1.24,15.68a3.34,3.34,0,0,1-1.29,1.42c-3,1.6-6.38,1.49-9.64,1.34-7.33-.32-14.77,1.13-22-1.16a3.41,3.41,0,0,1-1.43-1.31c-1.57-5.45-2.88-10.89,1.06-16Z" transform="translate(-832 -412)"/><path class="i" d="M848.09,571.94V540l0-.08c5.37-3.88,10.89-2.93,16.46-.53.31.59.12-.23.28.4a61.55,61.55,0,0,1-.16,32.6c-5.59,2.61-11.14,3.45-16.58-.41Z" transform="translate(-832 -412)"/><path class="b" d="M928,428.06v16c-4.26,3.47-12,3.46-16,0q0-8,0-15.94Z" transform="translate(-832 -412)"/><path class="b" d="M960,444q0-8,0-16l16,0q0,8,0,15.94C972,447.5,964.29,447.51,960,444Z" transform="translate(-832 -412)"/><path class="b" d="M848.05,572l16,0,.81.46a16.15,16.15,0,0,1,0,15L864,588H848.08Z" transform="translate(-832 -412)"/><path class="b" d="M864,540h-16l0-15.94,15.85,0,.83.41a15.73,15.73,0,0,1,.07,15Z" transform="translate(-832 -412)"/><path class="b" d="M928,636q0,8,0,16l-15.94,0q0-8,0-15.94C916,632.51,923.73,632.5,928,636Z" transform="translate(-832 -412)"/><path class="k" d="M1055.87,476.1v63.84c-4.86,4.24-10.24,2.55-15.56,1.36a3.3,3.3,0,0,1-1.43-1.26c-2.35-5.25-1.11-10.77-1.21-16.19-.4-13.7-.16-27.4-.16-41.11a14.94,14.94,0,0,1,1.13-6.29,3.45,3.45,0,0,1,1.27-1.46C1045.36,473.45,1050.82,471.87,1055.87,476.1Z" transform="translate(-832 -412)"/><path class="d" d="M1055.87,476.1,1040,476c-4.24-4.9-2.45-10.29-1.25-15.63a3.41,3.41,0,0,1,1.32-1.42c5.42-1.48,10.85-3,15.88,1.14l.08,0Q1055.92,468.06,1055.87,476.1Z" transform="translate(-832 -412)"/><path class="d" d="M1040,540.07l15.92-.13L1056,556l-.1,0c-5.35,4-10.86,3-16.41.54C1037,551,1036,545.44,1040,540.07Z" transform="translate(-832 -412)"/><path class="d" d="M960,444l16,0h64l0,.09a13.75,13.75,0,0,1,0,15.94h0c-1.58,2.11-3.9,2.37-6.26,2.39-23,.14-45.89.23-68.84-.05-6.09-.08-7.12-1.25-7.19-7.55,0-3.7-1.08-7.76,2.33-10.77Z" transform="translate(-832 -412)"/><path class="l" d="M1040,460.05q0-8,0-15.94l16,0q0,8,0,16Z" transform="translate(-832 -412)"/><path class="k" d="M863.93,524.05l.21-47.95c4.94-4.22,10.35-2.61,15.74-1.23a3.46,3.46,0,0,1,1.37,1.39,14.3,14.3,0,0,1,1.23,6.28c.08,12.08.13,24.15,0,36.23,0,2.1.17,4.36-1.62,6-5.65,1.88-11.28,3.34-16.62-.84Z" transform="translate(-832 -412)"/><path class="d" d="M880.06,476l-15.93.12q0-8-.11-16.06l.08,0c4.93-4.13,10.31-2.55,15.67-1.26a3.41,3.41,0,0,1,1.41,1.33C882.6,465.55,884.26,471,880.06,476Z" transform="translate(-832 -412)"/><path class="m" d="M912,444l16,0,.06,0c4.05,4.85,2.45,10.35,1.56,15.65-.34,2-2.53,2.49-4.41,2.55-13.46.45-26.91.36-40.37.06a6,6,0,0,1-4.77-2.28h0a13.76,13.76,0,0,1,0-15.94Z" transform="translate(-832 -412)"/><path class="l" d="M880.06,444.11q0,8,0,15.94l-15.95,0q0-8,0-16Z" transform="translate(-832 -412)"/><path class="m" d="M928,636l-16,0-32-.1c-4.11-5-2.62-10.42-1.13-15.84a3.65,3.65,0,0,1,1.46-1.35,10.2,10.2,0,0,1,3.35-1q20.7-.68,41.42,0c3.14.1,5.06,1.69,5.05,4.93,0,4.52,1.68,9.36-2.16,13.27Z" transform="translate(-832 -412)"/><path class="l" d="M880.05,620q0,8,0,15.93l-16,0q0-8-.08-16l.11,0C868.52,616.56,875.78,616.56,880.05,620Z" transform="translate(-832 -412)"/><path class="d" d="M880.05,620H864.11q0-16-.1-32l.11,0c5.35-4.1,11-2.68,16.65-.84a3.69,3.69,0,0,1,1.36,2.58,204.62,204.62,0,0,1,.09,26.44,5.44,5.44,0,0,1-2.16,3.79Z" transform="translate(-832 -412)"/><path class="n" d="M880.06,620q0-16,0-32c-3.17-2.57-2.25-6.21-2.44-9.54-.12-2.12.1-4.24.15-6.35-.31-8.16-.17-16.32-.16-24.47a16.57,16.57,0,0,1,1.21-7.33,3.3,3.3,0,0,1,1.32-1.4c7.13-2.56,14.52-1,21.78-1.3,3.46-.16,7-.39,10.24,1.47,2.35,2.12,2.16,5.05,2.44,7.82.37,3.82,2.33,5.94,6.21,6.55,3.09.49,7.57-1.11,8.78,2.84,1.47,4.79,2.06,10-.71,14.86-2.24,3.42-5.78,3.31-9.28,3.48-2.34.11-4.17,1.19-4.71,3.66-.47,2.19-.41,4.39,1.5,5.93a5.9,5.9,0,0,0,6.13.68c2.61-1,3-3.37,3-5.76,0-3.12.45-6,3.27-7.86,4.64-2.94,9.65-1.75,14.51-1.12,2.64.35,2.91,2.88,3,5.1.31,5,.14,10,.17,15,.07,9.73,1.17,10.91,10.76,11.38,1,0,2,.12,3,.11,10.46-.32,20.91-.35,31.36,0,1,0,2-.07,3-.11,9.6-.46,10.13-.82,11-10.16.35-3.85,2-6,5.87-5.74,4.23.32,9-2,12.51,2.28,0,3.79,0,7.58,0,11.36,0,3,1.56,4.56,4.58,4.58L1040,604c3.78,5,3,10.19.82,15.48l-.82.51q-36.68,0-73.34,0c-6.17,0-6.54.42-6.6,6.48,0,3.16,0,6.32,0,9.48H928.05c0-3.49-.18-7,0-10.47.21-4.11-1.6-5.58-5.62-5.55C908.31,620,894.18,620,880.06,620Z" transform="translate(-832 -412)"/><path class="l" d="M1056,620q0,8-.07,16h-16q0-8,0-16h0a13.76,13.76,0,0,1,15.93,0Z" transform="translate(-832 -412)"/><path class="o" d="M928,572c0-3.8-.06-7.61,0-11.41,0-3.09-1.38-4.36-4.48-4.6-11.52-.85-11.51-.92-11.5-12.45,0-1.16,0-2.32,0-3.48l.33-.73c1.67-1.76,3.91-1.59,6-1.79,5.55-.5,6.69-1.79,7.15-7.48.21-2.53-.68-5.46,2.18-7.23,3.8-1.61,7.82-1.18,11.79-1.28,4.3-.12,8.64.42,12.9-.43,2.76-.54,4.43-2.3,4.38-5.21,0-2.67-1.66-4.23-4.14-4.94a28,28,0,0,0-5.92-.64c-3.17-.21-4.89-1.75-5-5,0-.33-.07-.66-.08-1-.47-16.39,0-14.62,13.39-14.77,9.62-.11,19.24-.05,28.86,0,2.65,0,5.32,0,7.8,1.18a3.22,3.22,0,0,1,1.36,1.2c1.37,2.61,1.36,5.45,1.38,8.28,0,9.32-.08,18.64,0,27.95.09,7.31,2,9.2,9.2,9.3,9.65.14,19.3,0,29,.09,2.67,0,5.39,0,7.3,2.37v16l-.25.66c-2.11,2.21-4.89,1.71-7.49,1.84-3.53.19-5.64,1.74-5.64,5.49s2.11,5.31,5.63,5.5c2.6.14,5.39-.37,7.49,1.84l.26.66c0,3.82-.06,7.63,0,11.45,0,3.11-1.41,4.56-4.53,4.53-3.81-.05-7.63,0-11.44,0-3.65,0-7.3.11-10.94,0s-4.95,1.46-5.09,5c-.44,11-.54,11-11.51,11H992c-2.27-1.73-2.37-4.23-2.41-6.75-.09-5,.09-10-.1-14.94-.21-5.72-1.92-7.49-7.47-7.73-4-.18-8-.18-12,0-5.55.24-7.26,2-7.47,7.73-.19,5,0,10-.1,14.94,0,2.52-.14,5-2.41,6.75-3.65,0-7.3-.09-10.95,0s-5.13-1.43-5.08-5c.09-7.14-.11-14.28,0-21.41.1-4-1.51-5.78-5.58-5.58-3.47.18-7,0-10.45,0Z" transform="translate(-832 -412)"/><path class="i" d="M1055.88,620H1040V604h16Q1055.92,612,1055.88,620Z" transform="translate(-832 -412)"/><path class="i" d="M1040,556h15.94l.06,16h-16a13.87,13.87,0,0,1,0-16Z" transform="translate(-832 -412)"/><path class="n" d="M991.93,492.05q-20.71,0-41.44,0c-6,0-6.41.44-6.48,6.61,0,1,.1,2,0,3-.51,4.7,1.42,6.52,6.26,6.45,9.62-.13,11.82,3.08,9.64,12.77-.72,3.19-3,3.11-5.38,3.11-8.82,0-17.64,0-26.46,0-3-1.31-2.38-4.11-2.43-6.44-.21-9.25-.06-18.5-.09-27.74,0-9.94-1-10.92-11-11.42-1-.05-2-.11-3-.1-8.26.37-16.51.22-24.76.15-2.5,0-5-.13-6.74-2.36v-16c14,0,27.92-.12,41.87.06,4.49.05,6.45-1.49,6.13-6.07-.23-3.31,0-6.65,0-10H960c0,3.33.21,6.67,0,10-.32,4.61,1.67,6.09,6.15,6.06,24.61-.13,49.22-.05,73.83-.05q0,8,0,15.92v.13c-1.89,2.37-4.59,2.35-7.25,2.38-9.59.09-19.19,0-28.79.06-7.26.08-8.6,1.32-9.54,8.42C994.11,488.93,994.09,491,991.93,492.05Z" transform="translate(-832 -412)"/><path class="j" d="M880.06,540.05q0,16,0,31.93a13.91,13.91,0,0,1-16,0h0q0-16,0-32l.06,0C868.56,536.57,875.91,536.59,880.06,540.05Z" transform="translate(-832 -412)"/><path class="i" d="M864.05,572h16v16H864.11Z" transform="translate(-832 -412)"/><path class="p" d="M880.06,540.05l-16,0q.06-8,.13-16l15.85,0c3.42,4,3.42,11.55,0,16Z" transform="translate(-832 -412)"/><path class="q" d="M991.93,492.05c0-3.5.2-7,0-10.48-.22-4.1,1.53-5.61,5.59-5.57,14.13.15,28.27.09,42.41.1q0,24,0,47.91c-1.44,1.91-3.51,2.34-5.72,2.39-7.28.15-14.57.27-21.84-.06-5.12-.23-6.42-1.57-6.74-6.63-.34-5.28,0-10.58-.18-15.88-.18-6.79-1.59-8.42-8.23-9.37-2-.29-3.91-.68-5.21-2.44Z" transform="translate(-832 -412)"/><path class="r" d="M992,492c3.16,0,6.32.17,9.46,0,4.65-.28,6.71,1.57,6.54,6.36-.23,6.3-.09,12.62,0,18.92.06,6,.74,6.67,6.56,6.71,8.47.06,16.94,0,25.4,0q0,8,0,15.93c-14,0-28-.08-41.93.13-4.56.07-6.17-1.58-6.11-6.12C992.12,520,992,506,992,492Z" transform="translate(-832 -412)"/><path class="q" d="M880,540q0-8,0-16V476.1l32,0c2.16,1.57,2.38,3.89,2.4,6.25q.21,25.69,0,51.4c0,2.36-.24,4.68-2.41,6.24l0,.07Z" transform="translate(-832 -412)"/><path class="s" d="M960,604c0-8.81.1-17.62-.07-26.42-.08-4.06,1.48-5.69,5.56-5.59,7.14.18,14.29.14,21.44,0,3.61-.05,5.08,1.48,5,5.07-.11,9,0,18,0,26.92Z" transform="translate(-832 -412)"/><path class="o" d="M928,572c0,4,0,7.95,0,11.92,0,2.61-1.31,4-4,4l-3,.05c-9.07.06-9.07.06-9-9,.05-6.69.3-6.94,7.06-7,3,0,5.95,0,8.93,0Z" transform="translate(-832 -412)"/><path class="t" d="M912,540q0-32,0-63.89c3.49,0,7,.13,10.47-.07,4.1-.22,5.6,1.54,5.57,5.6-.13,14.13,0,28.26,0,42.4,0,3.82-.09,7.64,0,11.46,0,3.13-1.41,4.57-4.53,4.52C919.66,539.93,915.84,540,912,540Z" transform="translate(-832 -412)"/><path class="n" d="M1039.94,556q0,8,0,16l-11.92-.05c-2.62,0-3.76-1.35-4.06-4-1.28-11-.47-12,10.51-12Z" transform="translate(-832 -412)"/></svg>